STARTFONT 2.3
FONT -FontForge-Zen Tokyo Zoo-Book-R-Normal--8-80-72-72-P-37-ISO10646-1
SIZE 8 72 72  2
FONTBOUNDINGBOX 11 14 -1 -3
COMMENT "Generated by fontforge, http://fontforge.sourceforge.net"
COMMENT "Copyright 2021 The Zen Tokyo Zoo Project Authors (https://github.com/googlefonts/zen-tokyo-zoo)"
STARTPROPERTIES 40
FOUNDRY "FontForge"
FAMILY_NAME "Zen Tokyo Zoo"
WEIGHT_NAME "Book"
SLANT "R"
SETWIDTH_NAME "Normal"
ADD_STYLE_NAME ""
PIXEL_SIZE 8
POINT_SIZE 80
RESOLUTION_X 72
RESOLUTION_Y 72
SPACING "P"
AVERAGE_WIDTH 37
CHARSET_REGISTRY "ISO10646"
CHARSET_ENCODING "1"
FONTNAME_REGISTRY ""
CHARSET_COLLECTIONS "ISO10646-1"
BITS_PER_PIXEL 2
FONT_NAME "ZenTokyoZoo-Regular"
FACE_NAME "Zen Tokyo Zoo Regular"
COPYRIGHT "Copyright 2021 The Zen Tokyo Zoo Project Authors (https://github.com/googlefonts/zen-tokyo-zoo)"
FONT_VERSION "1.002; ttfautohint (v1.8.3)"
FONT_ASCENT 6
FONT_DESCENT 2
UNDERLINE_POSITION -1
UNDERLINE_THICKNESS 1
X_HEIGHT 3
CAP_HEIGHT 7
RAW_ASCENT 800
RAW_DESCENT 200
NORM_SPACE 2
RELATIVE_WEIGHT 40
RELATIVE_SETWIDTH 50
SUPERSCRIPT_X 0
SUPERSCRIPT_Y 2
SUPERSCRIPT_SIZE 4
SUBSCRIPT_X 0
SUBSCRIPT_Y 0
SUBSCRIPT_SIZE 4
AVG_LOWERCASE_WIDTH 32
AVG_UPPERCASE_WIDTH 59
ENDPROPERTIES
CHARS 338
STARTCHAR CR
ENCODING 13
SWIDTH 600 0
DWIDTH 5 0
BBX 1 1 0 0
BITMAP
00
ENDCHAR
STARTCHAR space
ENCODING 32
SWIDTH 280 0
DWIDTH 2 0
BBX 1 1 0 0
BITMAP
00
ENDCHAR
STARTCHAR exclam
ENCODING 33
SWIDTH 196 0
DWIDTH 2 0
BBX 2 4 0 0
BITMAP
50
50
40
40
ENDCHAR
STARTCHAR quotedbl
ENCODING 34
SWIDTH 302 0
DWIDTH 2 0
BBX 3 1 0 3
BITMAP
54
ENDCHAR
STARTCHAR numbersign
ENCODING 35
SWIDTH 513 0
DWIDTH 4 0
BBX 4 4 0 0
BITMAP
15
15
54
14
ENDCHAR
STARTCHAR dollar
ENCODING 36
SWIDTH 379 0
DWIDTH 3 0
BBX 3 5 0 0
BITMAP
10
54
64
54
10
ENDCHAR
STARTCHAR percent
ENCODING 37
SWIDTH 493 0
DWIDTH 4 0
BBX 4 4 0 0
BITMAP
55
54
15
55
ENDCHAR
STARTCHAR ampersand
ENCODING 38
SWIDTH 487 0
DWIDTH 4 0
BBX 4 4 0 0
BITMAP
24
24
55
64
ENDCHAR
STARTCHAR quotesingle
ENCODING 39
SWIDTH 146 0
DWIDTH 1 0
BBX 1 1 0 3
BITMAP
40
ENDCHAR
STARTCHAR parenleft
ENCODING 40
SWIDTH 210 0
DWIDTH 2 0
BBX 2 4 0 0
BITMAP
50
40
40
50
ENDCHAR
STARTCHAR parenright
ENCODING 41
SWIDTH 210 0
DWIDTH 2 0
BBX 2 5 0 0
BITMAP
40
50
50
50
40
ENDCHAR
STARTCHAR asterisk
ENCODING 42
SWIDTH 358 0
DWIDTH 3 0
BBX 2 2 0 2
BITMAP
10
50
ENDCHAR
STARTCHAR plus
ENCODING 43
SWIDTH 394 0
DWIDTH 3 0
BBX 3 3 0 1
BITMAP
10
54
10
ENDCHAR
STARTCHAR comma
ENCODING 44
SWIDTH 216 0
DWIDTH 2 0
BBX 2 1 0 0
BITMAP
50
ENDCHAR
STARTCHAR hyphen
ENCODING 45
SWIDTH 326 0
DWIDTH 3 0
BBX 2 2 0 1
BITMAP
50
50
ENDCHAR
STARTCHAR period
ENCODING 46
SWIDTH 176 0
DWIDTH 1 0
BBX 1 1 0 0
BITMAP
40
ENDCHAR
STARTCHAR slash
ENCODING 47
SWIDTH 298 0
DWIDTH 2 0
BBX 2 4 0 0
BITMAP
10
10
50
50
ENDCHAR
STARTCHAR zero
ENCODING 48
SWIDTH 306 0
DWIDTH 2 0
BBX 3 4 0 0
BITMAP
60
54
54
60
ENDCHAR
STARTCHAR one
ENCODING 49
SWIDTH 306 0
DWIDTH 2 0
BBX 2 4 0 0
BITMAP
50
10
10
10
ENDCHAR
STARTCHAR two
ENCODING 50
SWIDTH 299 0
DWIDTH 2 0
BBX 2 4 0 0
BITMAP
60
10
50
60
ENDCHAR
STARTCHAR three
ENCODING 51
SWIDTH 324 0
DWIDTH 3 0
BBX 3 4 0 0
BITMAP
60
10
14
60
ENDCHAR
STARTCHAR four
ENCODING 52
SWIDTH 339 0
DWIDTH 3 0
BBX 3 4 0 0
BITMAP
10
50
54
54
ENDCHAR
STARTCHAR five
ENCODING 53
SWIDTH 363 0
DWIDTH 3 0
BBX 3 4 0 0
BITMAP
64
50
14
64
ENDCHAR
STARTCHAR six
ENCODING 54
SWIDTH 306 0
DWIDTH 2 0
BBX 2 4 0 0
BITMAP
60
50
50
60
ENDCHAR
STARTCHAR seven
ENCODING 55
SWIDTH 298 0
DWIDTH 2 0
BBX 2 4 0 0
BITMAP
60
10
10
50
ENDCHAR
STARTCHAR eight
ENCODING 56
SWIDTH 306 0
DWIDTH 2 0
BBX 2 4 0 0
BITMAP
60
50
50
60
ENDCHAR
STARTCHAR nine
ENCODING 57
SWIDTH 306 0
DWIDTH 2 0
BBX 3 4 0 0
BITMAP
60
54
54
60
ENDCHAR
STARTCHAR colon
ENCODING 58
SWIDTH 176 0
DWIDTH 1 0
BBX 1 2 0 0
BITMAP
40
40
ENDCHAR
STARTCHAR semicolon
ENCODING 59
SWIDTH 217 0
DWIDTH 2 0
BBX 2 3 0 -1
BITMAP
50
00
50
ENDCHAR
STARTCHAR less
ENCODING 60
SWIDTH 450 0
DWIDTH 4 0
BBX 3 3 0 0
BITMAP
04
54
04
ENDCHAR
STARTCHAR equal
ENCODING 61
SWIDTH 344 0
DWIDTH 3 0
BBX 2 3 0 0
BITMAP
50
50
50
ENDCHAR
STARTCHAR greater
ENCODING 62
SWIDTH 450 0
DWIDTH 4 0
BBX 3 3 0 0
BITMAP
50
14
50
ENDCHAR
STARTCHAR question
ENCODING 63
SWIDTH 346 0
DWIDTH 3 0
BBX 3 4 0 0
BITMAP
64
14
20
10
ENDCHAR
STARTCHAR at
ENCODING 64
SWIDTH 490 0
DWIDTH 4 0
BBX 4 4 0 0
BITMAP
14
55
54
14
ENDCHAR
STARTCHAR A
ENCODING 65
SWIDTH 798 0
DWIDTH 6 0
BBX 6 8 0 0
BITMAP
0500
0540
1540
1580
1550
1550
5550
5050
ENDCHAR
STARTCHAR B
ENCODING 66
SWIDTH 784 0
DWIDTH 6 0
BBX 6 8 0 0
BITMAP
5A80
5550
5050
5550
5550
5060
5560
5A80
ENDCHAR
STARTCHAR C
ENCODING 67
SWIDTH 776 0
DWIDTH 6 0
BBX 6 8 0 0
BITMAP
0A90
1550
5000
5000
5000
5000
1550
0A90
ENDCHAR
STARTCHAR D
ENCODING 68
SWIDTH 806 0
DWIDTH 6 0
BBX 6 8 0 0
BITMAP
5A40
5550
5060
5050
5050
5060
5550
5A40
ENDCHAR
STARTCHAR E
ENCODING 69
SWIDTH 677 0
DWIDTH 5 0
BBX 5 8 0 0
BITMAP
5A80
5540
5000
5540
5A40
5000
5540
5A80
ENDCHAR
STARTCHAR F
ENCODING 70
SWIDTH 677 0
DWIDTH 5 0
BBX 5 8 0 0
BITMAP
5A80
5540
5000
5540
5A40
5000
5000
5000
ENDCHAR
STARTCHAR G
ENCODING 71
SWIDTH 872 0
DWIDTH 7 0
BBX 7 8 0 0
BITMAP
0A90
1550
5010
5054
5054
5054
1554
0A90
ENDCHAR
STARTCHAR H
ENCODING 72
SWIDTH 781 0
DWIDTH 6 0
BBX 6 8 0 0
BITMAP
5050
5050
5050
5550
5A50
5050
5050
5050
ENDCHAR
STARTCHAR I
ENCODING 73
SWIDTH 262 0
DWIDTH 2 0
BBX 2 8 0 0
BITMAP
50
50
50
50
50
50
50
50
ENDCHAR
STARTCHAR J
ENCODING 74
SWIDTH 674 0
DWIDTH 5 0
BBX 5 8 0 0
BITMAP
0140
0140
0140
0140
0140
5140
5540
1A00
ENDCHAR
STARTCHAR K
ENCODING 75
SWIDTH 739 0
DWIDTH 6 0
BBX 6 8 0 0
BITMAP
5050
5140
5140
5500
6500
5540
5140
5050
ENDCHAR
STARTCHAR L
ENCODING 76
SWIDTH 604 0
DWIDTH 5 0
BBX 5 8 0 0
BITMAP
5000
5000
5000
5000
5000
5000
5540
5A40
ENDCHAR
STARTCHAR M
ENCODING 77
SWIDTH 909 0
DWIDTH 7 0
BBX 7 8 0 0
BITMAP
5014
5454
5554
5554
5554
5114
5014
5014
ENDCHAR
STARTCHAR N
ENCODING 78
SWIDTH 796 0
DWIDTH 6 0
BBX 6 8 0 0
BITMAP
5050
5450
5450
5550
5550
5150
5150
5050
ENDCHAR
STARTCHAR O
ENCODING 79
SWIDTH 894 0
DWIDTH 7 0
BBX 7 8 0 0
BITMAP
0A90
1550
5014
5014
5014
5014
1550
0A90
ENDCHAR
STARTCHAR P
ENCODING 80
SWIDTH 743 0
DWIDTH 6 0
BBX 6 8 0 0
BITMAP
5A80
5550
5050
5550
5540
5000
5000
5000
ENDCHAR
STARTCHAR Q
ENCODING 81
SWIDTH 911 0
DWIDTH 7 0
BBX 7 8 0 0
BITMAP
0A90
1550
5014
5014
5014
5054
1554
0A94
ENDCHAR
STARTCHAR R
ENCODING 82
SWIDTH 745 0
DWIDTH 6 0
BBX 6 8 0 0
BITMAP
5A80
5550
5050
5550
5540
5140
5140
5090
ENDCHAR
STARTCHAR S
ENCODING 83
SWIDTH 660 0
DWIDTH 5 0
BBX 5 8 0 0
BITMAP
1A00
5540
5000
6900
1640
0140
5540
1A00
ENDCHAR
STARTCHAR T
ENCODING 84
SWIDTH 641 0
DWIDTH 5 0
BBX 5 8 0 0
BITMAP
AA80
5540
0500
0500
0500
0500
0500
0500
ENDCHAR
STARTCHAR U
ENCODING 85
SWIDTH 702 0
DWIDTH 6 0
BBX 6 8 0 0
BITMAP
5050
5050
5050
5050
5050
5050
5580
1A40
ENDCHAR
STARTCHAR V
ENCODING 86
SWIDTH 758 0
DWIDTH 6 0
BBX 6 8 0 0
BITMAP
5050
5050
1540
2540
1540
1500
0500
0500
ENDCHAR
STARTCHAR W
ENCODING 87
SWIDTH 972 0
DWIDTH 8 0
BBX 8 8 0 0
BITMAP
5145
5145
5554
1554
1554
1450
1450
1460
ENDCHAR
STARTCHAR X
ENCODING 88
SWIDTH 712 0
DWIDTH 6 0
BBX 6 8 0 0
BITMAP
5140
1540
1540
0500
0500
1540
1540
5150
ENDCHAR
STARTCHAR Y
ENCODING 89
SWIDTH 769 0
DWIDTH 6 0
BBX 6 8 0 0
BITMAP
5050
1550
1540
0540
0500
0500
0500
0500
ENDCHAR
STARTCHAR Z
ENCODING 90
SWIDTH 708 0
DWIDTH 6 0
BBX 6 8 0 0
BITMAP
6950
1540
0140
0500
0500
1400
1540
5680
ENDCHAR
STARTCHAR bracketleft
ENCODING 91
SWIDTH 320 0
DWIDTH 3 0
BBX 2 5 0 -1
BITMAP
50
50
50
50
50
ENDCHAR
STARTCHAR backslash
ENCODING 92
SWIDTH 298 0
DWIDTH 2 0
BBX 2 4 0 0
BITMAP
50
50
10
10
ENDCHAR
STARTCHAR bracketright
ENCODING 93
SWIDTH 320 0
DWIDTH 3 0
BBX 1 5 1 -1
BITMAP
40
40
40
40
40
ENDCHAR
STARTCHAR asciicircum
ENCODING 94
SWIDTH 309 0
DWIDTH 2 0
BBX 2 1 0 2
BITMAP
50
ENDCHAR
STARTCHAR underscore
ENCODING 95
SWIDTH 472 0
DWIDTH 4 0
BBX 2 2 1 0
BITMAP
50
50
ENDCHAR
STARTCHAR grave
ENCODING 96
SWIDTH 195 0
DWIDTH 2 0
BBX 1 1 0 5
BITMAP
40
ENDCHAR
STARTCHAR a
ENCODING 97
SWIDTH 414 0
DWIDTH 3 0
BBX 3 4 0 0
BITMAP
14
54
54
58
ENDCHAR
STARTCHAR b
ENCODING 98
SWIDTH 423 0
DWIDTH 3 0
BBX 3 4 0 0
BITMAP
68
58
54
68
ENDCHAR
STARTCHAR c
ENCODING 99
SWIDTH 446 0
DWIDTH 4 0
BBX 3 4 0 0
BITMAP
24
40
40
24
ENDCHAR
STARTCHAR d
ENCODING 100
SWIDTH 450 0
DWIDTH 4 0
BBX 4 4 0 0
BITMAP
64
45
45
64
ENDCHAR
STARTCHAR e
ENCODING 101
SWIDTH 363 0
DWIDTH 3 0
BBX 3 4 0 0
BITMAP
64
50
50
64
ENDCHAR
STARTCHAR f
ENCODING 102
SWIDTH 365 0
DWIDTH 3 0
BBX 3 4 0 0
BITMAP
64
50
50
40
ENDCHAR
STARTCHAR g
ENCODING 103
SWIDTH 483 0
DWIDTH 4 0
BBX 4 4 0 0
BITMAP
24
45
45
28
ENDCHAR
STARTCHAR h
ENCODING 104
SWIDTH 428 0
DWIDTH 3 0
BBX 3 4 0 0
BITMAP
44
54
54
44
ENDCHAR
STARTCHAR i
ENCODING 105
SWIDTH 176 0
DWIDTH 1 0
BBX 1 4 0 0
BITMAP
40
40
40
40
ENDCHAR
STARTCHAR j
ENCODING 106
SWIDTH 390 0
DWIDTH 3 0
BBX 3 4 0 0
BITMAP
04
04
04
64
ENDCHAR
STARTCHAR k
ENCODING 107
SWIDTH 381 0
DWIDTH 3 0
BBX 3 4 0 0
BITMAP
54
50
60
54
ENDCHAR
STARTCHAR l
ENCODING 108
SWIDTH 330 0
DWIDTH 3 0
BBX 3 4 0 0
BITMAP
40
40
40
64
ENDCHAR
STARTCHAR m
ENCODING 109
SWIDTH 501 0
DWIDTH 4 0
BBX 4 4 0 0
BITMAP
55
69
55
41
ENDCHAR
STARTCHAR n
ENCODING 110
SWIDTH 444 0
DWIDTH 4 0
BBX 4 4 0 0
BITMAP
55
65
55
45
ENDCHAR
STARTCHAR o
ENCODING 111
SWIDTH 494 0
DWIDTH 4 0
BBX 4 4 0 0
BITMAP
28
41
41
28
ENDCHAR
STARTCHAR p
ENCODING 112
SWIDTH 412 0
DWIDTH 3 0
BBX 3 4 0 0
BITMAP
68
54
54
40
ENDCHAR
STARTCHAR q
ENCODING 113
SWIDTH 494 0
DWIDTH 4 0
BBX 4 4 0 0
BITMAP
28
41
45
29
ENDCHAR
STARTCHAR r
ENCODING 114
SWIDTH 412 0
DWIDTH 3 0
BBX 3 4 0 0
BITMAP
68
54
54
44
ENDCHAR
STARTCHAR s
ENCODING 115
SWIDTH 379 0
DWIDTH 3 0
BBX 3 4 0 0
BITMAP
64
54
14
64
ENDCHAR
STARTCHAR t
ENCODING 116
SWIDTH 349 0
DWIDTH 3 0
BBX 3 4 0 0
BITMAP
A4
10
10
10
ENDCHAR
STARTCHAR u
ENCODING 117
SWIDTH 400 0
DWIDTH 3 0
BBX 3 4 0 0
BITMAP
44
44
44
64
ENDCHAR
STARTCHAR v
ENCODING 118
SWIDTH 394 0
DWIDTH 3 0
BBX 3 4 0 0
BITMAP
48
54
54
20
ENDCHAR
STARTCHAR w
ENCODING 119
SWIDTH 521 0
DWIDTH 4 0
BBX 4 4 0 0
BITMAP
55
59
69
55
ENDCHAR
STARTCHAR x
ENCODING 120
SWIDTH 369 0
DWIDTH 3 0
BBX 3 4 0 0
BITMAP
54
20
60
54
ENDCHAR
STARTCHAR y
ENCODING 121
SWIDTH 422 0
DWIDTH 3 0
BBX 3 4 0 0
BITMAP
54
24
10
10
ENDCHAR
STARTCHAR z
ENCODING 122
SWIDTH 409 0
DWIDTH 3 0
BBX 3 4 0 0
BITMAP
68
14
50
A8
ENDCHAR
STARTCHAR braceleft
ENCODING 123
SWIDTH 443 0
DWIDTH 4 0
BBX 2 5 1 -1
BITMAP
50
40
40
50
50
ENDCHAR
STARTCHAR bar
ENCODING 124
SWIDTH 196 0
DWIDTH 2 0
BBX 2 4 0 0
BITMAP
50
50
50
50
ENDCHAR
STARTCHAR braceright
ENCODING 125
SWIDTH 506 0
DWIDTH 4 0
BBX 3 5 1 -1
BITMAP
50
10
14
50
50
ENDCHAR
STARTCHAR asciitilde
ENCODING 126
SWIDTH 450 0
DWIDTH 4 0
BBX 1 2 2 1
BITMAP
40
40
ENDCHAR
STARTCHAR uni00A0
ENCODING 160
SWIDTH 280 0
DWIDTH 2 0
BBX 1 1 0 0
BITMAP
00
ENDCHAR
STARTCHAR exclamdown
ENCODING 161
SWIDTH 196 0
DWIDTH 2 0
BBX 2 4 0 -1
BITMAP
40
40
50
50
ENDCHAR
STARTCHAR cent
ENCODING 162
SWIDTH 305 0
DWIDTH 2 0
BBX 2 5 0 -1
BITMAP
10
50
40
50
10
ENDCHAR
STARTCHAR sterling
ENCODING 163
SWIDTH 408 0
DWIDTH 3 0
BBX 3 4 0 0
BITMAP
64
50
00
A8
ENDCHAR
STARTCHAR currency
ENCODING 164
SWIDTH 401 0
DWIDTH 3 0
BBX 3 3 0 1
BITMAP
54
14
54
ENDCHAR
STARTCHAR yen
ENCODING 165
SWIDTH 423 0
DWIDTH 3 0
BBX 3 4 0 0
BITMAP
54
24
14
14
ENDCHAR
STARTCHAR brokenbar
ENCODING 166
SWIDTH 196 0
DWIDTH 2 0
BBX 2 4 0 0
BITMAP
50
40
40
50
ENDCHAR
STARTCHAR section
ENCODING 167
SWIDTH 322 0
DWIDTH 3 0
BBX 3 4 0 0
BITMAP
60
50
54
60
ENDCHAR
STARTCHAR dieresis
ENCODING 168
SWIDTH 287 0
DWIDTH 2 0
BBX 2 1 0 5
BITMAP
50
ENDCHAR
STARTCHAR copyright
ENCODING 169
SWIDTH 493 0
DWIDTH 4 0
BBX 4 5 0 0
BITMAP
14
55
51
55
14
ENDCHAR
STARTCHAR ordfeminine
ENCODING 170
SWIDTH 331 0
DWIDTH 3 0
BBX 2 1 0 2
BITMAP
50
ENDCHAR
STARTCHAR guillemotleft
ENCODING 171
SWIDTH 298 0
DWIDTH 2 0
BBX 2 2 0 1
BITMAP
10
50
ENDCHAR
STARTCHAR logicalnot
ENCODING 172
SWIDTH 420 0
DWIDTH 3 0
BBX 3 3 0 0
BITMAP
54
54
04
ENDCHAR
STARTCHAR uni00AD
ENCODING 173
SWIDTH 326 0
DWIDTH 3 0
BBX 2 2 0 1
BITMAP
50
50
ENDCHAR
STARTCHAR registered
ENCODING 174
SWIDTH 493 0
DWIDTH 4 0
BBX 4 5 0 0
BITMAP
14
41
55
55
14
ENDCHAR
STARTCHAR macron
ENCODING 175
SWIDTH 331 0
DWIDTH 3 0
BBX 2 1 0 4
BITMAP
50
ENDCHAR
STARTCHAR degree
ENCODING 176
SWIDTH 298 0
DWIDTH 2 0
BBX 2 3 0 2
BITMAP
10
50
10
ENDCHAR
STARTCHAR plusminus
ENCODING 177
SWIDTH 418 0
DWIDTH 3 0
BBX 3 4 0 0
BITMAP
10
14
10
68
ENDCHAR
STARTCHAR uni00B2
ENCODING 178
SWIDTH 233 0
DWIDTH 2 0
BBX 2 1 0 2
BITMAP
50
ENDCHAR
STARTCHAR uni00B3
ENCODING 179
SWIDTH 228 0
DWIDTH 2 0
BBX 1 1 0 2
BITMAP
40
ENDCHAR
STARTCHAR acute
ENCODING 180
SWIDTH 195 0
DWIDTH 2 0
BBX 1 1 0 5
BITMAP
40
ENDCHAR
STARTCHAR uni00B5
ENCODING 181
SWIDTH 506 0
DWIDTH 4 0
BBX 4 5 0 -1
BITMAP
54
54
54
65
50
ENDCHAR
STARTCHAR paragraph
ENCODING 182
SWIDTH 435 0
DWIDTH 3 0
BBX 3 4 0 0
BITMAP
68
54
54
14
ENDCHAR
STARTCHAR periodcentered
ENCODING 183
SWIDTH 176 0
DWIDTH 1 0
BBX 1 1 0 1
BITMAP
40
ENDCHAR
STARTCHAR cedilla
ENCODING 184
SWIDTH 261 0
DWIDTH 2 0
BBX 2 2 0 -2
BITMAP
50
10
ENDCHAR
STARTCHAR uni00B9
ENCODING 185
SWIDTH 218 0
DWIDTH 2 0
BBX 2 1 0 2
BITMAP
50
ENDCHAR
STARTCHAR ordmasculine
ENCODING 186
SWIDTH 335 0
DWIDTH 3 0
BBX 2 1 0 2
BITMAP
60
ENDCHAR
STARTCHAR guillemotright
ENCODING 187
SWIDTH 298 0
DWIDTH 2 0
BBX 2 1 0 1
BITMAP
50
ENDCHAR
STARTCHAR onequarter
ENCODING 188
SWIDTH 429 0
DWIDTH 3 0
BBX 3 4 0 0
BITMAP
44
14
14
14
ENDCHAR
STARTCHAR onehalf
ENCODING 189
SWIDTH 437 0
DWIDTH 4 0
BBX 3 4 0 0
BITMAP
54
14
14
04
ENDCHAR
STARTCHAR threequarters
ENCODING 190
SWIDTH 409 0
DWIDTH 3 0
BBX 3 4 0 0
BITMAP
44
54
14
54
ENDCHAR
STARTCHAR questiondown
ENCODING 191
SWIDTH 346 0
DWIDTH 3 0
BBX 2 5 0 -1
BITMAP
10
10
50
50
10
ENDCHAR
STARTCHAR Agrave
ENCODING 192
SWIDTH 798 0
DWIDTH 6 0
BBX 6 10 0 0
BITMAP
0400
0500
0500
0540
1540
1580
1550
1550
5550
5050
ENDCHAR
STARTCHAR Aacute
ENCODING 193
SWIDTH 798 0
DWIDTH 6 0
BBX 6 10 0 0
BITMAP
0140
0100
0500
0540
1540
1580
1550
1550
5550
5050
ENDCHAR
STARTCHAR Acircumflex
ENCODING 194
SWIDTH 798 0
DWIDTH 6 0
BBX 6 10 0 0
BITMAP
0500
1540
0500
0540
1540
1580
1550
1550
5550
5050
ENDCHAR
STARTCHAR Atilde
ENCODING 195
SWIDTH 798 0
DWIDTH 6 0
BBX 6 10 0 0
BITMAP
0400
0140
0500
0540
1540
1580
1550
1550
5550
5050
ENDCHAR
STARTCHAR Adieresis
ENCODING 196
SWIDTH 798 0
DWIDTH 6 0
BBX 6 11 0 0
BITMAP
1440
1540
1440
0500
0540
1540
1580
1550
1550
5550
5050
ENDCHAR
STARTCHAR Aring
ENCODING 197
SWIDTH 798 0
DWIDTH 6 0
BBX 6 11 0 0
BITMAP
0500
0500
0500
0500
0540
1540
1580
1550
1550
5550
5050
ENDCHAR
STARTCHAR AE
ENCODING 198
SWIDTH 1078 0
DWIDTH 9 0
BBX 9 8 0 0
BITMAP
016A40
055500
054000
055500
155A00
155000
555500
555A40
ENDCHAR
STARTCHAR Ccedilla
ENCODING 199
SWIDTH 776 0
DWIDTH 6 0
BBX 6 11 0 -3
BITMAP
0A90
1550
5000
5000
5000
5000
1550
0A90
0000
0500
0100
ENDCHAR
STARTCHAR Egrave
ENCODING 200
SWIDTH 677 0
DWIDTH 5 0
BBX 5 10 0 0
BITMAP
0500
0100
5A80
5540
5000
5540
5A40
5000
5540
5A80
ENDCHAR
STARTCHAR Eacute
ENCODING 201
SWIDTH 677 0
DWIDTH 5 0
BBX 5 10 0 0
BITMAP
0100
0500
5A80
5540
5000
5540
5A40
5000
5540
5A80
ENDCHAR
STARTCHAR Ecircumflex
ENCODING 202
SWIDTH 677 0
DWIDTH 5 0
BBX 5 10 0 0
BITMAP
0500
1540
5A80
5540
5000
5540
5A40
5000
5540
5A80
ENDCHAR
STARTCHAR Edieresis
ENCODING 203
SWIDTH 677 0
DWIDTH 5 0
BBX 5 11 0 0
BITMAP
1440
1540
1440
5A80
5540
5000
5540
5A40
5000
5540
5A80
ENDCHAR
STARTCHAR Igrave
ENCODING 204
SWIDTH 262 0
DWIDTH 2 0
BBX 2 10 0 0
BITMAP
40
50
50
50
50
50
50
50
50
50
ENDCHAR
STARTCHAR Iacute
ENCODING 205
SWIDTH 262 0
DWIDTH 2 0
BBX 3 10 0 0
BITMAP
14
10
50
50
50
50
50
50
50
50
ENDCHAR
STARTCHAR Icircumflex
ENCODING 206
SWIDTH 262 0
DWIDTH 2 0
BBX 4 10 -1 0
BITMAP
14
55
14
14
14
14
14
14
14
14
ENDCHAR
STARTCHAR Idieresis
ENCODING 207
SWIDTH 262 0
DWIDTH 2 0
BBX 4 11 -1 0
BITMAP
55
55
55
14
14
14
14
14
14
14
14
ENDCHAR
STARTCHAR Eth
ENCODING 208
SWIDTH 856 0
DWIDTH 7 0
BBX 7 8 0 0
BITMAP
5680
5560
1054
5414
A814
1054
5560
5680
ENDCHAR
STARTCHAR Ntilde
ENCODING 209
SWIDTH 796 0
DWIDTH 6 0
BBX 6 10 0 0
BITMAP
0400
0140
5050
5450
5450
5550
5550
5150
5150
5050
ENDCHAR
STARTCHAR Ograve
ENCODING 210
SWIDTH 894 0
DWIDTH 7 0
BBX 7 10 0 0
BITMAP
0500
0100
0A90
1550
5014
5014
5014
5014
1550
0A90
ENDCHAR
STARTCHAR Oacute
ENCODING 211
SWIDTH 894 0
DWIDTH 7 0
BBX 7 10 0 0
BITMAP
0140
0100
0A90
1550
5014
5014
5014
5014
1550
0A90
ENDCHAR
STARTCHAR Ocircumflex
ENCODING 212
SWIDTH 894 0
DWIDTH 7 0
BBX 7 10 0 0
BITMAP
0500
0540
0A90
1550
5014
5014
5014
5014
1550
0A90
ENDCHAR
STARTCHAR Otilde
ENCODING 213
SWIDTH 894 0
DWIDTH 7 0
BBX 7 10 0 0
BITMAP
0500
0040
0A90
1550
5014
5014
5014
5014
1550
0A90
ENDCHAR
STARTCHAR Odieresis
ENCODING 214
SWIDTH 894 0
DWIDTH 7 0
BBX 7 11 0 0
BITMAP
0440
1150
0440
0A90
1550
5014
5014
5014
5014
1550
0A90
ENDCHAR
STARTCHAR multiply
ENCODING 215
SWIDTH 370 0
DWIDTH 3 0
BBX 3 3 0 0
BITMAP
10
54
10
ENDCHAR
STARTCHAR Oslash
ENCODING 216
SWIDTH 894 0
DWIDTH 7 0
BBX 7 8 0 0
BITMAP
0A50
1550
5154
5554
5814
6414
1150
0690
ENDCHAR
STARTCHAR Ugrave
ENCODING 217
SWIDTH 702 0
DWIDTH 6 0
BBX 6 10 0 0
BITMAP
1400
0400
5050
5050
5050
5050
5050
5050
5580
1A40
ENDCHAR
STARTCHAR Uacute
ENCODING 218
SWIDTH 702 0
DWIDTH 6 0
BBX 6 10 0 0
BITMAP
0100
0500
5050
5050
5050
5050
5050
5050
5580
1A40
ENDCHAR
STARTCHAR Ucircumflex
ENCODING 219
SWIDTH 702 0
DWIDTH 6 0
BBX 6 10 0 0
BITMAP
0500
1500
5050
5050
5050
5050
5050
5050
5580
1A40
ENDCHAR
STARTCHAR Udieresis
ENCODING 220
SWIDTH 702 0
DWIDTH 6 0
BBX 6 11 0 0
BITMAP
1140
1540
1140
5050
5050
5050
5050
5050
5050
5580
1A40
ENDCHAR
STARTCHAR Yacute
ENCODING 221
SWIDTH 769 0
DWIDTH 6 0
BBX 6 10 0 0
BITMAP
0140
0100
5050
1550
1540
0540
0500
0500
0500
0500
ENDCHAR
STARTCHAR Thorn
ENCODING 222
SWIDTH 743 0
DWIDTH 6 0
BBX 6 8 0 0
BITMAP
5000
5540
5550
5550
5550
5550
5540
5000
ENDCHAR
STARTCHAR germandbls
ENCODING 223
SWIDTH 424 0
DWIDTH 3 0
BBX 3 4 0 0
BITMAP
68
58
54
58
ENDCHAR
STARTCHAR agrave
ENCODING 224
SWIDTH 414 0
DWIDTH 3 0
BBX 3 6 0 0
BITMAP
10
00
14
54
54
58
ENDCHAR
STARTCHAR aacute
ENCODING 225
SWIDTH 414 0
DWIDTH 3 0
BBX 3 4 0 0
BITMAP
14
54
54
58
ENDCHAR
STARTCHAR acircumflex
ENCODING 226
SWIDTH 414 0
DWIDTH 3 0
BBX 3 6 0 0
BITMAP
10
00
14
54
54
58
ENDCHAR
STARTCHAR atilde
ENCODING 227
SWIDTH 414 0
DWIDTH 3 0
BBX 3 4 0 0
BITMAP
14
54
54
58
ENDCHAR
STARTCHAR adieresis
ENCODING 228
SWIDTH 414 0
DWIDTH 3 0
BBX 3 6 0 0
BITMAP
14
00
14
54
54
58
ENDCHAR
STARTCHAR aring
ENCODING 229
SWIDTH 414 0
DWIDTH 3 0
BBX 3 6 0 0
BITMAP
10
10
14
54
54
58
ENDCHAR
STARTCHAR ae
ENCODING 230
SWIDTH 593 0
DWIDTH 5 0
BBX 5 4 0 0
BITMAP
1A40
1900
5900
5A40
ENDCHAR
STARTCHAR ccedilla
ENCODING 231
SWIDTH 446 0
DWIDTH 4 0
BBX 3 6 0 -2
BITMAP
24
40
40
24
10
10
ENDCHAR
STARTCHAR egrave
ENCODING 232
SWIDTH 363 0
DWIDTH 3 0
BBX 3 6 0 0
BITMAP
10
00
64
50
50
64
ENDCHAR
STARTCHAR eacute
ENCODING 233
SWIDTH 363 0
DWIDTH 3 0
BBX 3 4 0 0
BITMAP
64
50
50
64
ENDCHAR
STARTCHAR ecircumflex
ENCODING 234
SWIDTH 363 0
DWIDTH 3 0
BBX 3 6 0 0
BITMAP
10
00
64
50
50
64
ENDCHAR
STARTCHAR edieresis
ENCODING 235
SWIDTH 363 0
DWIDTH 3 0
BBX 3 6 0 0
BITMAP
14
00
64
50
50
64
ENDCHAR
STARTCHAR igrave
ENCODING 236
SWIDTH 176 0
DWIDTH 1 0
BBX 1 6 0 0
BITMAP
40
00
40
40
40
40
ENDCHAR
STARTCHAR iacute
ENCODING 237
SWIDTH 176 0
DWIDTH 1 0
BBX 1 4 0 0
BITMAP
40
40
40
40
ENDCHAR
STARTCHAR icircumflex
ENCODING 238
SWIDTH 176 0
DWIDTH 1 0
BBX 1 6 0 0
BITMAP
40
00
40
40
40
40
ENDCHAR
STARTCHAR idieresis
ENCODING 239
SWIDTH 176 0
DWIDTH 1 0
BBX 2 6 0 0
BITMAP
50
00
40
40
40
40
ENDCHAR
STARTCHAR eth
ENCODING 240
SWIDTH 455 0
DWIDTH 4 0
BBX 4 4 0 0
BITMAP
68
05
45
64
ENDCHAR
STARTCHAR ntilde
ENCODING 241
SWIDTH 444 0
DWIDTH 4 0
BBX 4 4 0 0
BITMAP
55
65
55
45
ENDCHAR
STARTCHAR ograve
ENCODING 242
SWIDTH 494 0
DWIDTH 4 0
BBX 4 6 0 0
BITMAP
10
00
28
41
41
28
ENDCHAR
STARTCHAR oacute
ENCODING 243
SWIDTH 494 0
DWIDTH 4 0
BBX 4 6 0 0
BITMAP
04
00
28
41
41
28
ENDCHAR
STARTCHAR ocircumflex
ENCODING 244
SWIDTH 494 0
DWIDTH 4 0
BBX 4 6 0 0
BITMAP
14
00
28
41
41
28
ENDCHAR
STARTCHAR otilde
ENCODING 245
SWIDTH 494 0
DWIDTH 4 0
BBX 4 5 0 0
BITMAP
04
28
41
41
28
ENDCHAR
STARTCHAR odieresis
ENCODING 246
SWIDTH 494 0
DWIDTH 4 0
BBX 4 6 0 0
BITMAP
14
00
28
41
41
28
ENDCHAR
STARTCHAR divide
ENCODING 247
SWIDTH 418 0
DWIDTH 3 0
BBX 3 4 0 0
BITMAP
10
54
54
10
ENDCHAR
STARTCHAR oslash
ENCODING 248
SWIDTH 494 0
DWIDTH 4 0
BBX 4 4 0 0
BITMAP
25
45
51
58
ENDCHAR
STARTCHAR ugrave
ENCODING 249
SWIDTH 400 0
DWIDTH 3 0
BBX 3 6 0 0
BITMAP
10
00
44
44
44
64
ENDCHAR
STARTCHAR uacute
ENCODING 250
SWIDTH 400 0
DWIDTH 3 0
BBX 3 6 0 0
BITMAP
10
00
44
44
44
64
ENDCHAR
STARTCHAR ucircumflex
ENCODING 251
SWIDTH 400 0
DWIDTH 3 0
BBX 3 6 0 0
BITMAP
10
00
44
44
44
64
ENDCHAR
STARTCHAR udieresis
ENCODING 252
SWIDTH 400 0
DWIDTH 3 0
BBX 3 6 0 0
BITMAP
14
00
44
44
44
64
ENDCHAR
STARTCHAR yacute
ENCODING 253
SWIDTH 422 0
DWIDTH 3 0
BBX 3 6 0 0
BITMAP
10
00
54
24
10
10
ENDCHAR
STARTCHAR thorn
ENCODING 254
SWIDTH 412 0
DWIDTH 3 0
BBX 3 4 0 0
BITMAP
54
54
54
54
ENDCHAR
STARTCHAR ydieresis
ENCODING 255
SWIDTH 422 0
DWIDTH 3 0
BBX 3 6 0 0
BITMAP
14
00
54
24
10
10
ENDCHAR
STARTCHAR Edotaccent
ENCODING 278
SWIDTH 677 0
DWIDTH 5 0
BBX 5 9 0 0
BITMAP
0100
5A80
5540
5000
5540
5A40
5000
5540
5A80
ENDCHAR
STARTCHAR edotaccent
ENCODING 279
SWIDTH 363 0
DWIDTH 3 0
BBX 3 6 0 0
BITMAP
20
00
64
50
50
64
ENDCHAR
STARTCHAR dotlessi
ENCODING 305
SWIDTH 176 0
DWIDTH 1 0
BBX 1 4 0 0
BITMAP
40
40
40
40
ENDCHAR
STARTCHAR OE
ENCODING 338
SWIDTH 1221 0
DWIDTH 10 0
BBX 10 8 0 0
BITMAP
0A4690
250540
500000
500540
500680
500000
250540
0A4690
ENDCHAR
STARTCHAR oe
ENCODING 339
SWIDTH 637 0
DWIDTH 5 0
BBX 5 4 0 0
BITMAP
2580
4140
4140
2580
ENDCHAR
STARTCHAR Wcircumflex
ENCODING 372
SWIDTH 972 0
DWIDTH 8 0
BBX 8 10 0 0
BITMAP
0140
0540
5145
5145
5554
1554
1554
1450
1450
1460
ENDCHAR
STARTCHAR wcircumflex
ENCODING 373
SWIDTH 521 0
DWIDTH 4 0
BBX 4 6 0 0
BITMAP
14
00
55
59
69
55
ENDCHAR
STARTCHAR Ycircumflex
ENCODING 374
SWIDTH 769 0
DWIDTH 6 0
BBX 6 10 0 0
BITMAP
0500
1540
5050
1550
1540
0540
0500
0500
0500
0500
ENDCHAR
STARTCHAR ycircumflex
ENCODING 375
SWIDTH 422 0
DWIDTH 3 0
BBX 3 6 0 0
BITMAP
10
00
54
24
10
10
ENDCHAR
STARTCHAR Ydieresis
ENCODING 376
SWIDTH 769 0
DWIDTH 6 0
BBX 6 11 0 0
BITMAP
1440
1540
1440
5050
1550
1540
0540
0500
0500
0500
0500
ENDCHAR
STARTCHAR circumflex
ENCODING 710
SWIDTH 298 0
DWIDTH 2 0
BBX 2 1 0 5
BITMAP
50
ENDCHAR
STARTCHAR dotaccent
ENCODING 729
SWIDTH 212 0
DWIDTH 2 0
BBX 1 1 0 5
BITMAP
40
ENDCHAR
STARTCHAR ring
ENCODING 730
SWIDTH 212 0
DWIDTH 2 0
BBX 1 1 1 4
BITMAP
00
ENDCHAR
STARTCHAR tilde
ENCODING 732
SWIDTH 329 0
DWIDTH 3 0
BBX 1 1 1 4
BITMAP
40
ENDCHAR
STARTCHAR gravecomb
ENCODING 768
SWIDTH 0 0
DWIDTH 0 0
BBX 1 1 0 5
BITMAP
40
ENDCHAR
STARTCHAR acutecomb
ENCODING 769
SWIDTH 0 0
DWIDTH 0 0
BBX 1 1 0 5
BITMAP
40
ENDCHAR
STARTCHAR uni0302
ENCODING 770
SWIDTH 0 0
DWIDTH 0 0
BBX 2 1 0 5
BITMAP
50
ENDCHAR
STARTCHAR tildecomb
ENCODING 771
SWIDTH 0 0
DWIDTH 0 0
BBX 1 1 1 4
BITMAP
40
ENDCHAR
STARTCHAR uni0307
ENCODING 775
SWIDTH 0 0
DWIDTH 0 0
BBX 1 1 0 5
BITMAP
40
ENDCHAR
STARTCHAR uni0308
ENCODING 776
SWIDTH 0 0
DWIDTH 0 0
BBX 2 1 0 5
BITMAP
50
ENDCHAR
STARTCHAR uni030A
ENCODING 778
SWIDTH 0 0
DWIDTH 0 0
BBX 1 1 1 4
BITMAP
00
ENDCHAR
STARTCHAR uni0327
ENCODING 807
SWIDTH 0 0
DWIDTH 0 0
BBX 2 2 0 -2
BITMAP
50
10
ENDCHAR
STARTCHAR Wgrave
ENCODING 7808
SWIDTH 972 0
DWIDTH 8 0
BBX 8 10 0 0
BITMAP
0100
0140
5145
5145
5554
1554
1554
1450
1450
1460
ENDCHAR
STARTCHAR wgrave
ENCODING 7809
SWIDTH 521 0
DWIDTH 4 0
BBX 4 6 0 0
BITMAP
04
00
55
59
69
55
ENDCHAR
STARTCHAR Wacute
ENCODING 7810
SWIDTH 972 0
DWIDTH 8 0
BBX 8 10 0 0
BITMAP
0140
0100
5145
5145
5554
1554
1554
1450
1450
1460
ENDCHAR
STARTCHAR wacute
ENCODING 7811
SWIDTH 521 0
DWIDTH 4 0
BBX 4 6 0 0
BITMAP
04
00
55
59
69
55
ENDCHAR
STARTCHAR Wdieresis
ENCODING 7812
SWIDTH 972 0
DWIDTH 8 0
BBX 8 11 0 0
BITMAP
0450
0550
0450
5145
5145
5554
1554
1554
1450
1450
1460
ENDCHAR
STARTCHAR wdieresis
ENCODING 7813
SWIDTH 521 0
DWIDTH 4 0
BBX 4 6 0 0
BITMAP
14
00
55
59
69
55
ENDCHAR
STARTCHAR uni1E9E
ENCODING 7838
SWIDTH 784 0
DWIDTH 6 0
BBX 6 8 0 0
BITMAP
5A90
5540
5140
5140
5550
5050
5150
5690
ENDCHAR
STARTCHAR Ygrave
ENCODING 7922
SWIDTH 769 0
DWIDTH 6 0
BBX 6 10 0 0
BITMAP
0500
0100
5050
1550
1540
0540
0500
0500
0500
0500
ENDCHAR
STARTCHAR ygrave
ENCODING 7923
SWIDTH 422 0
DWIDTH 3 0
BBX 3 6 0 0
BITMAP
10
00
54
24
10
10
ENDCHAR
STARTCHAR endash
ENCODING 8211
SWIDTH 507 0
DWIDTH 4 0
BBX 4 2 0 1
BITMAP
55
55
ENDCHAR
STARTCHAR emdash
ENCODING 8212
SWIDTH 552 0
DWIDTH 4 0
BBX 4 2 0 1
BITMAP
55
55
ENDCHAR
STARTCHAR quoteleft
ENCODING 8216
SWIDTH 146 0
DWIDTH 1 0
BBX 1 1 0 3
BITMAP
40
ENDCHAR
STARTCHAR quoteright
ENCODING 8217
SWIDTH 146 0
DWIDTH 1 0
BBX 1 1 0 3
BITMAP
40
ENDCHAR
STARTCHAR quotesinglbase
ENCODING 8218
SWIDTH 146 0
DWIDTH 1 0
BBX 1 1 0 -1
BITMAP
40
ENDCHAR
STARTCHAR quotedblleft
ENCODING 8220
SWIDTH 297 0
DWIDTH 2 0
BBX 2 1 0 3
BITMAP
50
ENDCHAR
STARTCHAR quotedblright
ENCODING 8221
SWIDTH 297 0
DWIDTH 2 0
BBX 3 1 0 3
BITMAP
54
ENDCHAR
STARTCHAR quotedblbase
ENCODING 8222
SWIDTH 297 0
DWIDTH 2 0
BBX 2 1 0 -1
BITMAP
50
ENDCHAR
STARTCHAR bullet
ENCODING 8226
SWIDTH 302 0
DWIDTH 2 0
BBX 2 3 0 1
BITMAP
10
50
10
ENDCHAR
STARTCHAR ellipsis
ENCODING 8230
SWIDTH 528 0
DWIDTH 4 0
BBX 4 1 0 0
BITMAP
55
ENDCHAR
STARTCHAR guilsinglleft
ENCODING 8249
SWIDTH 178 0
DWIDTH 1 0
BBX 1 1 0 1
BITMAP
40
ENDCHAR
STARTCHAR guilsinglright
ENCODING 8250
SWIDTH 178 0
DWIDTH 1 0
BBX 1 1 0 1
BITMAP
40
ENDCHAR
STARTCHAR fraction
ENCODING 8260
SWIDTH 362 0
DWIDTH 3 0
BBX 3 4 0 0
BITMAP
14
10
50
50
ENDCHAR
STARTCHAR uni2074
ENCODING 8308
SWIDTH 204 0
DWIDTH 2 0
BBX 2 1 0 2
BITMAP
50
ENDCHAR
STARTCHAR Euro
ENCODING 8364
SWIDTH 462 0
DWIDTH 4 0
BBX 3 4 0 0
BITMAP
28
50
50
28
ENDCHAR
STARTCHAR trademark
ENCODING 8482
SWIDTH 461 0
DWIDTH 4 0
BBX 4 2 0 2
BITMAP
A5
55
ENDCHAR
STARTCHAR minus
ENCODING 8722
SWIDTH 420 0
DWIDTH 3 0
BBX 3 2 0 0
BITMAP
BC
14
ENDCHAR
STARTCHAR uni2215
ENCODING 8725
SWIDTH 278 0
DWIDTH 2 0
BBX 2 3 0 0
BITMAP
10
50
50
ENDCHAR
STARTCHAR .notdef
ENCODING -1
SWIDTH 500 0
DWIDTH 4 0
BBX 4 10 0 -2
BITMAP
55
41
41
41
41
41
41
41
41
55
ENDCHAR
STARTCHAR NULL
ENCODING -1
SWIDTH 600 0
DWIDTH 5 0
BBX 1 1 0 0
BITMAP
00
ENDCHAR
STARTCHAR acutecomb.case
ENCODING -1
SWIDTH 0 0
DWIDTH 0 0
BBX 2 2 0 8
BITMAP
10
50
ENDCHAR
STARTCHAR ampersand.case
ENCODING -1
SWIDTH 797 0
DWIDTH 6 0
BBX 6 8 0 0
BITMAP
1A00
1540
1540
1900
5540
5550
5540
1950
ENDCHAR
STARTCHAR asciicircum.case
ENCODING -1
SWIDTH 540 0
DWIDTH 4 0
BBX 4 4 0 4
BITMAP
04
14
15
51
ENDCHAR
STARTCHAR asciitilde.case
ENCODING -1
SWIDTH 640 0
DWIDTH 5 0
BBX 5 3 0 3
BITMAP
5400
5540
5640
ENDCHAR
STARTCHAR asterisk.case
ENCODING -1
SWIDTH 482 0
DWIDTH 4 0
BBX 3 3 0 5
BITMAP
14
44
14
ENDCHAR
STARTCHAR at.case
ENCODING -1
SWIDTH 915 0
DWIDTH 7 0
BBX 7 8 0 0
BITMAP
0A90
1014
5144
5444
5444
5144
2010
0A80
ENDCHAR
STARTCHAR backslash.case
ENCODING -1
SWIDTH 504 0
DWIDTH 4 0
BBX 4 9 0 -1
BITMAP
50
50
50
14
14
14
05
05
05
ENDCHAR
STARTCHAR bar.case
ENCODING -1
SWIDTH 262 0
DWIDTH 2 0
BBX 2 9 0 -1
BITMAP
50
50
50
50
50
50
50
50
50
ENDCHAR
STARTCHAR braceleft.case
ENCODING -1
SWIDTH 504 0
DWIDTH 4 0
BBX 4 10 0 -1
BITMAP
15
15
15
14
14
54
14
14
15
15
ENDCHAR
STARTCHAR braceright.case
ENCODING -1
SWIDTH 506 0
DWIDTH 4 0
BBX 4 10 0 -3
BITMAP
14
54
14
14
15
15
14
14
14
14
ENDCHAR
STARTCHAR bracketleft.case
ENCODING -1
SWIDTH 453 0
DWIDTH 4 0
BBX 3 10 0 -1
BITMAP
54
54
54
50
50
50
50
50
58
54
ENDCHAR
STARTCHAR bracketright.case
ENCODING -1
SWIDTH 453 0
DWIDTH 4 0
BBX 4 10 0 -3
BITMAP
14
55
05
05
05
05
05
15
15
14
ENDCHAR
STARTCHAR brokenbar.case
ENCODING -1
SWIDTH 262 0
DWIDTH 2 0
BBX 2 9 0 0
BITMAP
50
50
50
50
00
50
50
50
50
ENDCHAR
STARTCHAR bullet.case
ENCODING -1
SWIDTH 503 0
DWIDTH 4 0
BBX 4 5 0 2
BITMAP
14
55
55
55
14
ENDCHAR
STARTCHAR uni0327.case
ENCODING -1
SWIDTH 0 0
DWIDTH 0 0
BBX 1 2 1 -3
BITMAP
40
40
ENDCHAR
STARTCHAR cent.case
ENCODING -1
SWIDTH 577 0
DWIDTH 5 0
BBX 4 9 0 0
BITMAP
04
00
05
15
50
50
15
15
04
ENDCHAR
STARTCHAR uni0302.case
ENCODING -1
SWIDTH 0 0
DWIDTH 0 0
BBX 4 2 0 8
BITMAP
14
55
ENDCHAR
STARTCHAR colon.case
ENCODING -1
SWIDTH 262 0
DWIDTH 2 0
BBX 2 5 0 0
BITMAP
50
50
00
50
50
ENDCHAR
STARTCHAR comma.case
ENCODING -1
SWIDTH 338 0
DWIDTH 3 0
BBX 2 3 0 -1
BITMAP
10
50
50
ENDCHAR
STARTCHAR copyright.case
ENCODING -1
SWIDTH 895 0
DWIDTH 7 0
BBX 7 8 0 0
BITMAP
0A90
2010
5144
4408
4408
5144
1010
0A90
ENDCHAR
STARTCHAR currency.case
ENCODING -1
SWIDTH 676 0
DWIDTH 5 0
BBX 5 6 0 0
BITMAP
1040
5540
1500
1540
5540
1040
ENDCHAR
STARTCHAR degree.case
ENCODING -1
SWIDTH 413 0
DWIDTH 3 0
BBX 3 4 0 4
BITMAP
64
48
54
14
ENDCHAR
STARTCHAR uni0308.case
ENCODING -1
SWIDTH 0 0
DWIDTH 0 0
BBX 4 3 0 8
BITMAP
11
55
11
ENDCHAR
STARTCHAR divide.case
ENCODING -1
SWIDTH 618 0
DWIDTH 5 0
BBX 5 6 0 1
BITMAP
0400
0400
5500
6A40
0400
0400
ENDCHAR
STARTCHAR uni2215.case
ENCODING -1
SWIDTH 483 0
DWIDTH 4 0
BBX 4 8 0 0
BITMAP
09
05
18
14
14
50
50
50
ENDCHAR
STARTCHAR dollar.case
ENCODING -1
SWIDTH 660 0
DWIDTH 5 0
BBX 5 9 0 -1
BITMAP
0400
1540
5540
5400
1540
0540
5540
5540
0400
ENDCHAR
STARTCHAR eight.case
ENCODING -1
SWIDTH 561 0
DWIDTH 4 0
BBX 5 8 0 0
BITMAP
1900
5500
5140
6500
5A00
5140
5500
2900
ENDCHAR
STARTCHAR ellipsis.case
ENCODING -1
SWIDTH 766 0
DWIDTH 6 0
BBX 6 2 0 0
BITMAP
5510
5550
ENDCHAR
STARTCHAR emdash.case
ENCODING -1
SWIDTH 790 0
DWIDTH 6 0
BBX 6 2 0 3
BITMAP
5550
6AA0
ENDCHAR
STARTCHAR endash.case
ENCODING -1
SWIDTH 721 0
DWIDTH 6 0
BBX 6 2 0 3
BITMAP
5540
6A90
ENDCHAR
STARTCHAR equal.case
ENCODING -1
SWIDTH 618 0
DWIDTH 5 0
BBX 3 5 1 1
BITMAP
54
54
00
54
54
ENDCHAR
STARTCHAR Euro.case
ENCODING -1
SWIDTH 767 0
DWIDTH 6 0
BBX 6 8 0 0
BITMAP
0690
1550
1400
5500
6A00
1400
1550
0690
ENDCHAR
STARTCHAR exclam.case
ENCODING -1
SWIDTH 262 0
DWIDTH 2 0
BBX 2 8 0 0
BITMAP
50
50
50
50
50
50
50
50
ENDCHAR
STARTCHAR exclamdown.case
ENCODING -1
SWIDTH 262 0
DWIDTH 2 0
BBX 2 8 0 -3
BITMAP
50
50
50
50
50
50
50
50
ENDCHAR
STARTCHAR five.case
ENCODING -1
SWIDTH 558 0
DWIDTH 4 0
BBX 4 8 0 0
BITMAP
6A
15
50
54
59
41
55
29
ENDCHAR
STARTCHAR four.case
ENCODING -1
SWIDTH 585 0
DWIDTH 5 0
BBX 4 8 0 0
BITMAP
05
14
14
14
55
55
55
05
ENDCHAR
STARTCHAR uni2074.case
ENCODING -1
SWIDTH 312 0
DWIDTH 3 0
BBX 3 4 0 4
BITMAP
10
50
54
14
ENDCHAR
STARTCHAR fraction.case
ENCODING -1
SWIDTH 655 0
DWIDTH 5 0
BBX 5 8 0 0
BITMAP
0140
0100
0100
0500
0400
1400
1000
5000
ENDCHAR
STARTCHAR gravecomb.case
ENCODING -1
SWIDTH 0 0
DWIDTH 0 0
BBX 2 2 0 8
BITMAP
50
10
ENDCHAR
STARTCHAR greater.case
ENCODING -1
SWIDTH 677 0
DWIDTH 5 0
BBX 5 6 0 0
BITMAP
4000
5400
1500
1540
5400
5000
ENDCHAR
STARTCHAR guillemotleft.case
ENCODING -1
SWIDTH 666 0
DWIDTH 5 0
BBX 5 4 0 1
BITMAP
1140
5140
5140
1040
ENDCHAR
STARTCHAR guillemotright.case
ENCODING -1
SWIDTH 666 0
DWIDTH 5 0
BBX 5 4 0 1
BITMAP
5140
5140
5140
5100
ENDCHAR
STARTCHAR guilsinglleft.case
ENCODING -1
SWIDTH 338 0
DWIDTH 3 0
BBX 2 4 0 1
BITMAP
10
50
50
10
ENDCHAR
STARTCHAR guilsinglright.case
ENCODING -1
SWIDTH 338 0
DWIDTH 3 0
BBX 2 4 0 1
BITMAP
50
50
50
50
ENDCHAR
STARTCHAR hyphen.case
ENCODING -1
SWIDTH 445 0
DWIDTH 4 0
BBX 3 2 0 3
BITMAP
54
68
ENDCHAR
STARTCHAR less.case
ENCODING -1
SWIDTH 677 0
DWIDTH 5 0
BBX 4 6 1 0
BITMAP
01
15
54
55
05
01
ENDCHAR
STARTCHAR logicalnot.case
ENCODING -1
SWIDTH 618 0
DWIDTH 5 0
BBX 5 4 0 1
BITMAP
1500
6A40
0100
0140
ENDCHAR
STARTCHAR uni00B5.case
ENCODING -1
SWIDTH 792 0
DWIDTH 6 0
BBX 6 10 0 -2
BITMAP
5050
5050
5050
5050
5050
5050
5590
5A50
5000
5000
ENDCHAR
STARTCHAR minus.case
ENCODING -1
SWIDTH 618 0
DWIDTH 5 0
BBX 5 2 0 3
BITMAP
5500
6A40
ENDCHAR
STARTCHAR multiply.case
ENCODING -1
SWIDTH 580 0
DWIDTH 5 0
BBX 5 4 0 2
BITMAP
1540
1540
1540
5500
ENDCHAR
STARTCHAR nine.case
ENCODING -1
SWIDTH 558 0
DWIDTH 4 0
BBX 5 8 0 -2
BITMAP
2900
5500
5140
6540
1540
4140
5500
2900
ENDCHAR
STARTCHAR numbersign.case
ENCODING -1
SWIDTH 776 0
DWIDTH 6 0
BBX 6 8 0 0
BITMAP
1450
1550
1550
1550
5540
5540
1140
1140
ENDCHAR
STARTCHAR one.case
ENCODING -1
SWIDTH 378 0
DWIDTH 3 0
BBX 3 8 0 0
BITMAP
94
54
14
14
14
14
14
14
ENDCHAR
STARTCHAR onehalf.case
ENCODING -1
SWIDTH 735 0
DWIDTH 6 0
BBX 6 8 0 0
BITMAP
5040
1140
1100
0500
0590
0450
1440
1040
ENDCHAR
STARTCHAR onequarter.case
ENCODING -1
SWIDTH 722 0
DWIDTH 6 0
BBX 6 8 0 0
BITMAP
5040
1140
1100
0500
0540
0540
1550
1050
ENDCHAR
STARTCHAR uni00B9.case
ENCODING -1
SWIDTH 306 0
DWIDTH 2 0
BBX 2 3 0 5
BITMAP
50
10
10
ENDCHAR
STARTCHAR ordfeminine.case
ENCODING -1
SWIDTH 456 0
DWIDTH 4 0
BBX 3 3 0 5
BITMAP
14
24
54
ENDCHAR
STARTCHAR ordmasculine.case
ENCODING -1
SWIDTH 489 0
DWIDTH 4 0
BBX 4 4 0 4
BITMAP
28
55
55
14
ENDCHAR
STARTCHAR paragraph.case
ENCODING -1
SWIDTH 893 0
DWIDTH 7 0
BBX 7 8 0 0
BITMAP
2AA4
5554
5054
5554
1554
0054
0054
0054
ENDCHAR
STARTCHAR parenleft.case
ENCODING -1
SWIDTH 290 0
DWIDTH 2 0
BBX 3 9 0 -1
BITMAP
24
50
50
50
50
50
50
50
24
ENDCHAR
STARTCHAR parenright.case
ENCODING -1
SWIDTH 290 0
DWIDTH 2 0
BBX 2 9 0 -2
BITMAP
90
50
60
60
50
60
60
50
90
ENDCHAR
STARTCHAR percent.case
ENCODING -1
SWIDTH 827 0
DWIDTH 7 0
BBX 7 8 0 0
BITMAP
6450
4850
5540
1540
0550
1554
1554
50A0
ENDCHAR
STARTCHAR period.case
ENCODING -1
SWIDTH 262 0
DWIDTH 2 0
BBX 2 2 0 0
BITMAP
50
50
ENDCHAR
STARTCHAR periodcentered.case
ENCODING -1
SWIDTH 262 0
DWIDTH 2 0
BBX 2 2 0 3
BITMAP
50
50
ENDCHAR
STARTCHAR plus.case
ENCODING -1
SWIDTH 616 0
DWIDTH 5 0
BBX 5 5 0 1
BITMAP
1400
5500
6540
1400
0400
ENDCHAR
STARTCHAR plusminus.case
ENCODING -1
SWIDTH 618 0
DWIDTH 5 0
BBX 5 6 0 0
BITMAP
1400
5500
6540
1400
5900
6A40
ENDCHAR
STARTCHAR question.case
ENCODING -1
SWIDTH 598 0
DWIDTH 5 0
BBX 5 8 0 0
BITMAP
2900
5540
1140
0500
0500
1400
0400
1400
ENDCHAR
STARTCHAR questiondown.case
ENCODING -1
SWIDTH 598 0
DWIDTH 5 0
BBX 4 8 0 -3
BITMAP
14
04
14
18
54
51
55
19
ENDCHAR
STARTCHAR quotedbl.case
ENCODING -1
SWIDTH 464 0
DWIDTH 4 0
BBX 4 3 0 5
BITMAP
55
55
44
ENDCHAR
STARTCHAR quotedblbase.case
ENCODING -1
SWIDTH 464 0
DWIDTH 4 0
BBX 4 2 0 1
BITMAP
55
55
ENDCHAR
STARTCHAR quotedblleft.case
ENCODING -1
SWIDTH 464 0
DWIDTH 4 0
BBX 4 3 0 3
BITMAP
44
44
55
ENDCHAR
STARTCHAR quotedblright.case
ENCODING -1
SWIDTH 464 0
DWIDTH 4 0
BBX 4 2 0 6
BITMAP
55
55
ENDCHAR
STARTCHAR quoteleft.case
ENCODING -1
SWIDTH 212 0
DWIDTH 2 0
BBX 2 3 0 3
BITMAP
40
40
50
ENDCHAR
STARTCHAR quoteright.case
ENCODING -1
SWIDTH 212 0
DWIDTH 2 0
BBX 2 2 0 6
BITMAP
50
50
ENDCHAR
STARTCHAR quotesinglbase.case
ENCODING -1
SWIDTH 212 0
DWIDTH 2 0
BBX 2 2 0 1
BITMAP
50
50
ENDCHAR
STARTCHAR quotesingle.case
ENCODING -1
SWIDTH 212 0
DWIDTH 2 0
BBX 2 3 0 5
BITMAP
50
50
40
ENDCHAR
STARTCHAR registered.case
ENCODING -1
SWIDTH 895 0
DWIDTH 7 0
BBX 7 8 0 0
BITMAP
0A90
2010
5544
4548
4648
5444
1010
0A90
ENDCHAR
STARTCHAR uni030A.case
ENCODING -1
SWIDTH 0 0
DWIDTH 0 0
BBX 2 3 0 8
BITMAP
10
50
10
ENDCHAR
STARTCHAR section.case
ENCODING -1
SWIDTH 645 0
DWIDTH 5 0
BBX 5 11 0 -2
BITMAP
1500
1940
5400
1540
5540
6140
5900
1640
1540
5540
1500
ENDCHAR
STARTCHAR semicolon.case
ENCODING -1
SWIDTH 338 0
DWIDTH 3 0
BBX 3 6 0 -1
BITMAP
14
10
00
10
50
50
ENDCHAR
STARTCHAR seven.case
ENCODING -1
SWIDTH 505 0
DWIDTH 4 0
BBX 4 8 0 0
BITMAP
69
55
05
05
14
14
14
14
ENDCHAR
STARTCHAR six.case
ENCODING -1
SWIDTH 558 0
DWIDTH 4 0
BBX 4 8 0 0
BITMAP
19
55
51
54
59
51
55
19
ENDCHAR
STARTCHAR slash.case
ENCODING -1
SWIDTH 504 0
DWIDTH 4 0
BBX 4 9 0 -1
BITMAP
05
05
05
14
14
14
50
50
50
ENDCHAR
STARTCHAR uni00AD.case
ENCODING -1
SWIDTH 445 0
DWIDTH 4 0
BBX 3 2 0 3
BITMAP
54
68
ENDCHAR
STARTCHAR sterling.case
ENCODING -1
SWIDTH 618 0
DWIDTH 5 0
BBX 5 8 0 0
BITMAP
2900
5540
5000
5400
6900
5000
5540
AA40
ENDCHAR
STARTCHAR three.case
ENCODING -1
SWIDTH 558 0
DWIDTH 4 0
BBX 5 8 0 0
BITMAP
2900
5500
4140
0500
0500
4100
5500
2900
ENDCHAR
STARTCHAR threequarters.case
ENCODING -1
SWIDTH 722 0
DWIDTH 6 0
BBX 6 8 0 0
BITMAP
6040
1140
1500
1500
0540
0540
1550
1050
ENDCHAR
STARTCHAR uni00B3.case
ENCODING -1
SWIDTH 332 0
DWIDTH 3 0
BBX 3 4 0 4
BITMAP
60
10
14
10
ENDCHAR
STARTCHAR tildecomb.case
ENCODING -1
SWIDTH 0 0
DWIDTH 0 0
BBX 2 2 1 8
BITMAP
40
10
ENDCHAR
STARTCHAR trademark.case
ENCODING -1
SWIDTH 850 0
DWIDTH 7 0
BBX 7 4 0 3
BITMAP
A654
12A4
1254
1214
ENDCHAR
STARTCHAR two.case
ENCODING -1
SWIDTH 558 0
DWIDTH 4 0
BBX 5 8 0 0
BITMAP
2900
5500
4140
0500
1900
1400
1500
6A00
ENDCHAR
STARTCHAR uni00B2.case
ENCODING -1
SWIDTH 339 0
DWIDTH 3 0
BBX 2 4 0 4
BITMAP
60
10
50
10
ENDCHAR
STARTCHAR underscore.case
ENCODING -1
SWIDTH 667 0
DWIDTH 5 0
BBX 5 2 0 0
BITMAP
1540
6A80
ENDCHAR
STARTCHAR yen.case
ENCODING -1
SWIDTH 769 0
DWIDTH 6 0
BBX 6 8 0 0
BITMAP
5050
5550
1540
1540
0500
1540
1540
0500
ENDCHAR
STARTCHAR zero.case
ENCODING -1
SWIDTH 558 0
DWIDTH 4 0
BBX 5 8 0 0
BITMAP
1900
5500
5140
5140
5140
5140
5500
1900
ENDCHAR
ENDFONT
